<svg xmlns="http://www.w3.org/2000/svg" viewBox="0 0 512 512" role="img" aria-label="REINDUSTRIALIZE gear R logo">
  <rect width="512" height="512" rx="72" fill="#071019"/>
  <path fill="#f4bf35" d="M230 38h52l12 47a176 176 0 0 1 35 14l42-25 37 37-25 42a176 176 0 0 1 14 35l47 12v52l-47 12a176 176 0 0 1-14 35l25 42-37 37-42-25a176 176 0 0 1-35 14l-12 47h-52l-12-47a176 176 0 0 1-35-14l-42 25-37-37 25-42a176 176 0 0 1-14-35l-47-12v-52l47-12a176 176 0 0 1 14-35l-25-42 37-37 42 25a176 176 0 0 1 35-14z"/>
  <circle cx="256" cy="226" r="122" fill="#071019"/>
  <path fill="#40df91" d="M166 138h105c67 0 103 32 103 86 0 38-19 65-55 78l65 90h-75l-56-80h-24v80h-63zm63 54v68h39c28 0 42-11 42-34s-14-34-42-34z"/>
</svg>
